<?xml version="1.0" standalone="no"?>
<!DOCTYPE svg PUBLIC "-//W3C//DTD SVG 20010904//EN"
 "http://www.w3.org/TR/2001/REC-SVG-20010904/DTD/svg10.dtd">
<svg version="1.0" xmlns="http://www.w3.org/2000/svg"
 width="128.000000pt" height="128.000000pt" viewBox="0 0 128.000000 128.000000"
 preserveAspectRatio="xMidYMid meet">

<g transform="translate(0.000000,128.000000) scale(0.100000,-0.100000)"
fill="#000000" stroke="none">
<path d="M448 953 l-3 -158 -22 35 c-33 54 -77 75 -153 75 -151 0 -240 -116
-240 -314 0 -161 65 -275 177 -307 93 -27 178 0 222 69 l21 32 0 -52 0 -53
110 0 110 0 0 52 0 52 33 -32 c51 -49 119 -74 218 -80 204 -11 343 89 326 235
-10 87 -71 125 -252 159 -49 9 -96 21 -102 26 -19 16 -16 46 6 58 37 19 81 12
113 -20 29 -29 32 -30 124 -30 l94 0 0 26 c0 38 -38 100 -79 128 -55 38 -152
59 -241 53 -98 -7 -159 -30 -204 -74 l-36 -36 0 156 0 157 -110 0 -109 0 -3
-157z m-50 -229 c36 -25 52 -68 52 -136 0 -136 -102 -195 -168 -97 -21 30 -23
43 -20 112 3 74 5 81 36 108 36 32 67 37 100 13z m365 -174 c23 -10 81 -25
129 -34 101 -17 128 -29 128 -56 0 -25 -29 -40 -75 -40 -28 0 -44 7 -65 30
-27 29 -31 30 -119 30 l-91 0 0 71 0 72 25 -27 c14 -15 44 -36 68 -46z"/>
</g>
</svg>
